# xmcd CD database file
#
# Track frame offsets:
#	150
#	16745
#	29977
#	43215
#	57430
#	78310
#	94730
#	112655
#	127607
#	141395
#	154640
#	168707
#	185960
#	200830
#	216087
#	229795
#
# Disc length: 3315 seconds
#
# Revision: 0
# Processed by: cddbd v1.5PL3 Copyright (c) Steve Scherf et al.
# Submitted via: CDex 1.50
#
DISCID=e30cf110
DTITLE=Various Artist - Boogie Woogie Piano
DYEAR=1900
DGENRE=Jazz
TTITLE0=Pinetop Boogie Woogie - Pinetop Smith
TTITLE1=Mile Of Mo Bird Rag - Albert Ammons
TTITLE2=Nagasaki - Mortimer Dixon
TTITLE3=Two's And Fews - Meade Lux Lewis
TTITLE4=Bass Going Crazy - Hercal Thomas
TTITLE5=Suitcase Blues - Albert Ammons
TTITLE6=Yancey's Mixture - Jimmy Yancey
TTITLE7=Boogie Woogie Blues - Albert Ammons
TTITLE8=Cavalcade Of Boogie - Albert Ammons
TTITLE9=At The Window - Jimmy Yancey
TTITLE10=Boogie Woogie Stomp - Albert Ammons
TTITLE11=Midnight Stomp - Jimmy Yancey
TTITLE12=Shout For Joy - Albert Ammons
TTITLE13=Sweet Patootie - Jimmy Yancey
TTITLE14=Bloodlin - Jimmy Yancey
TTITLE15=Death Letter Blues - Jimmy Yancey
EXTD=
EXTT0=
EXTT1=
EXTT2=
EXTT3=
EXTT4=
EXTT5=
EXTT6=
EXTT7=
EXTT8=
EXTT9=
EXTT10=
EXTT11=
EXTT12=
EXTT13=
EXTT14=
EXTT15=
PLAYORDER=
